<?xml version="1.0" encoding="utf-8"?>
<!-- Generator: Adobe Illustrator 18.1.0, SVG Export Plug-In . SVG Version: 6.00 Build 0)  -->
<svg version="1.1" id="Layer_1" xmlns="http://www.w3.org/2000/svg" xmlns:xlink="http://www.w3.org/1999/xlink" x="0px" y="0px"
	 viewBox="469.5 267.5 21 25" enable-background="new 469.5 267.5 21 25" xml:space="preserve">
<g>
	<g>
		<path fill="#FFFFFF" d="M489,274.7c-0.8,0-1.5,0.6-1.5,1.4v6.5c0,0.8,0.7,1.4,1.5,1.4s1.5-0.6,1.5-1.4v-6.4
			C490.5,275.4,489.8,274.7,489,274.7z M473.1,280.8L473.1,280.8v5.9c0.1,0.4,0.4,0.8,0.9,0.8h1.8v3.6c0,0.8,0.7,1.4,1.5,1.4
			s1.5-0.6,1.5-1.4v-3.6h2.7v3.6c0,0.8,0.7,1.4,1.5,1.4s1.5-0.6,1.5-1.4v-3.6h1.8c0.5,0,0.8-0.4,0.8-0.8v-5.9l0,0v-5.6h-14V280.8z
			 M471,274.7c-0.8,0-1.5,0.7-1.5,1.5v6.5c0,0.8,0.7,1.4,1.5,1.4s1.5-0.6,1.5-1.4v-6.5C472.4,275.4,471.8,274.7,471,274.7z
			 M483.3,269.3l1.2-1.6c0,0,0-0.1-0.1-0.1s-0.1-0.1-0.2,0l-1.2,1.7c-0.8-0.3-1.8-0.5-3-0.5s-2.2,0.2-3,0.5l-1.2-1.8
			c0,0-0.1,0-0.2,0c-0.1,0.1-0.1,0.2-0.1,0.2l1.2,1.6c-3.4,1.5-3.5,5.1-3.5,5.1h13.6C486.8,274.4,486.6,270.8,483.3,269.3z
			 M477,272.3c-0.4,0-0.8-0.4-0.8-0.8s0.4-0.8,0.8-0.8c0.5,0,0.8,0.3,0.8,0.8C477.8,271.9,477.5,272.3,477,272.3z M483,272.3
			c-0.5,0-0.8-0.4-0.8-0.8s0.4-0.8,0.8-0.8c0.5,0,0.8,0.4,0.8,0.8S483.4,272.3,483,272.3z"/>
	</g>
</g>
</svg>
